<svg width="1920" height="188" viewBox="0 0 1920 188" fill="none" xmlns="http://www.w3.org/2000/svg">
<g clip-path="url(#clip0_8_35)">
<path d="M-53 56.4L14.5333 53.2862C82.0667 49.9375 217.133 44.0625 352.2 62.6862C487.267 81.6625 622.333 125.137 757.4 141C892.467 156.863 1027.53 143.938 1162.6 125.314C1297.67 106.337 1432.73 81.6625 1567.8 75.2C1702.87 68.7375 1837.93 81.6625 1905.47 87.7137L1973 94V188H1905.47C1837.93 188 1702.87 188 1567.8 188C1432.73 188 1297.67 188 1162.6 188C1027.53 188 892.467 188 757.4 188C622.333 188 487.267 188 352.2 188C217.133 188 82.0667 188 14.5333 188H-53V56.4Z" fill="#B5DFDE" fill-opacity="0.7"/>
</g>
<defs>
<clipPath id="clip0_8_35">
<rect width="2026" height="188" fill="white" transform="translate(-53)"/>
</clipPath>
</defs>
</svg>
