<svg width="1920" height="138" viewBox="0 0 1920 138" fill="none" xmlns="http://www.w3.org/2000/svg">
<g clip-path="url(#clip0_8_35)">
<path d="M-53 6.39999L14.5333 3.28624C82.0667 -0.0625086 217.133 -5.93751 352.2 12.6862C487.267 31.6625 622.333 75.1375 757.4 91C892.467 106.863 1027.53 93.9375 1162.6 75.3138C1297.67 56.3375 1432.73 31.6625 1567.8 25.2C1702.87 18.7375 1837.93 31.6625 1905.47 37.7137L1973 44V138H1905.47C1837.93 138 1702.87 138 1567.8 138C1432.73 138 1297.67 138 1162.6 138C1027.53 138 892.467 138 757.4 138C622.333 138 487.267 138 352.2 138C217.133 138 82.0667 138 14.5333 138H-53V6.39999Z" fill="#B5DFDE" fill-opacity="0.7"/>
</g>
<defs>
<clipPath id="clip0_8_35">
<rect width="2026" height="138" fill="white" transform="translate(-53)"/>
</clipPath>
</defs>
</svg>
